<mxfile host="65bd71144e">
    <diagram id="B_ucP97DQck_iEXcnHVt" name="Page-1">
        <mxGraphModel dx="691" dy="609" grid="1" gridSize="10" guides="1" tooltips="1" connect="1" arrows="1" fold="1" page="1" pageScale="1" pageWidth="827" pageHeight="1169" math="0" shadow="0">
            <root>
                <mxCell id="0"/>
                <mxCell id="1" parent="0"/>
                <mxCell id="4" value="" style="rounded=0;whiteSpace=wrap;html=1;" parent="1" vertex="1">
                    <mxGeometry x="46" y="40" width="734" height="430" as="geometry"/>
                </mxCell>
                <mxCell id="5" value="" style="rounded=0;whiteSpace=wrap;html=1;" parent="1" vertex="1">
                    <mxGeometry x="46" y="40" width="734" height="40" as="geometry"/>
                </mxCell>
                <mxCell id="6" value="Search" style="strokeWidth=1;shadow=0;dashed=0;align=center;html=1;shape=mxgraph.mockup.forms.searchBox;strokeColor=#999999;mainText=;strokeColor2=#008cff;fontColor=#666666;fontSize=17;align=left;spacingLeft=3;" parent="1" vertex="1">
                    <mxGeometry x="200" y="47.5" width="160" height="25" as="geometry"/>
                </mxCell>
                <mxCell id="7" value="MERCADONA" style="text;html=1;strokeColor=none;fillColor=none;align=center;verticalAlign=middle;whiteSpace=wrap;rounded=0;fontSize=16;" parent="1" vertex="1">
                    <mxGeometry x="80" y="45" width="60" height="30" as="geometry"/>
                </mxCell>
                <mxCell id="8" value="" style="strokeWidth=1;html=1;shadow=0;dashed=0;shape=mxgraph.android.rrect;rSize=0;fillColor=#444444;strokeColor=none;fontSize=16;" parent="1" vertex="1">
                    <mxGeometry x="380" y="45" width="200" height="30" as="geometry"/>
                </mxCell>
                <mxCell id="9" value="Categorías" style="strokeWidth=1;html=1;shadow=0;dashed=0;shape=mxgraph.android.anchor;fontStyle=1;fontColor=#ffffff;fontSize=14;" parent="8" vertex="1">
                    <mxGeometry x="20.437837837837836" width="49.74999999999999" height="30" as="geometry"/>
                </mxCell>
                <mxCell id="10" value="Mis habituales" style="strokeWidth=1;html=1;shadow=0;dashed=0;shape=mxgraph.android.rrect;rSize=0;fontStyle=1;fillColor=none;strokeColor=none;fontColor=#ffffff;fontSize=14;" parent="8" vertex="1">
                    <mxGeometry x="90" width="110" height="30" as="geometry"/>
                </mxCell>
                <mxCell id="11" value="" style="strokeWidth=1;html=1;shadow=0;dashed=0;shape=mxgraph.android.rrect;rSize=0;fillColor=#33b5e5;strokeColor=none;fontSize=16;" parent="10" vertex="1">
                    <mxGeometry y="27" width="110.00000000000001" height="3" as="geometry"/>
                </mxCell>
                <mxCell id="15" value="Iniciar Sesión&amp;nbsp; v" style="rounded=1;fillColor=#f5f5f5;strokeColor=#666666;html=1;fontColor=#333333;align=center;verticalAlign=middle;fontStyle=0;fontSize=12;sketch=0;" parent="1" vertex="1">
                    <mxGeometry x="610" y="43.5" width="96" height="33" as="geometry"/>
                </mxCell>
                <mxCell id="16" value="" style="rounded=1;fillColor=#d80073;strokeColor=#A50040;html=1;fontColor=#ffffff;align=center;verticalAlign=middle;fontStyle=0;fontSize=12;sketch=0;" vertex="1" parent="1">
                    <mxGeometry x="710" y="43.5" width="60" height="33" as="geometry"/>
                </mxCell>
                <mxCell id="17" value="" style="verticalLabelPosition=bottom;shadow=0;dashed=0;align=center;html=1;verticalAlign=top;strokeWidth=1;shape=mxgraph.mockup.misc.shoppingCart;strokeColor=#FFFFFF;fillColor=none;" vertex="1" parent="1">
                    <mxGeometry x="725" y="45" width="30" height="30" as="geometry"/>
                </mxCell>
                <mxCell id="18" value="" style="rounded=0;whiteSpace=wrap;html=1;" vertex="1" parent="1">
                    <mxGeometry x="555" y="76.5" width="200" height="163.5" as="geometry"/>
                </mxCell>
                <mxCell id="19" value="Invitado" style="rounded=0;whiteSpace=wrap;html=1;" vertex="1" parent="1">
                    <mxGeometry x="555" y="75" width="200" height="35" as="geometry"/>
                </mxCell>
                <mxCell id="20" value="Iniciar Sesión" style="rounded=1;fillColor=#d80073;strokeColor=#A50040;html=1;fontColor=#ffffff;align=center;verticalAlign=middle;fontStyle=0;fontSize=12;sketch=0;" vertex="1" parent="1">
                    <mxGeometry x="602" y="120" width="112" height="33" as="geometry"/>
                </mxCell>
                <mxCell id="21" value="Preguntas frecuentes" style="rounded=0;whiteSpace=wrap;html=1;" vertex="1" parent="1">
                    <mxGeometry x="555" y="170" width="200" height="35" as="geometry"/>
                </mxCell>
                <mxCell id="22" value="Ayuda" style="rounded=0;whiteSpace=wrap;html=1;" vertex="1" parent="1">
                    <mxGeometry x="555" y="205" width="200" height="35" as="geometry"/>
                </mxCell>
                <mxCell id="23" value="" style="rounded=0;whiteSpace=wrap;html=1;" vertex="1" parent="1">
                    <mxGeometry x="269.73" y="100" width="287.54" height="280" as="geometry"/>
                </mxCell>
                <mxCell id="25" style="edgeStyle=none;html=1;" edge="1" parent="1" target="23">
                    <mxGeometry relative="1" as="geometry">
                        <mxPoint x="415.05999999999995" y="100" as="sourcePoint"/>
                    </mxGeometry>
                </mxCell>
                <mxCell id="26" value="Identifícate" style="text;html=1;strokeColor=none;fillColor=none;align=center;verticalAlign=middle;whiteSpace=wrap;rounded=0;fontSize=16;" vertex="1" parent="1">
                    <mxGeometry x="384" y="110" width="60" height="30" as="geometry"/>
                </mxCell>
                <mxCell id="28" value="Email" style="html=1;shadow=0;dashed=0;shape=mxgraph.bootstrap.rrect;rSize=5;strokeColor=#CED4DA;strokeWidth=1;fillColor=#E9ECEF;fontColor=#505050;whiteSpace=wrap;align=left;verticalAlign=middle;spacingLeft=10;fontSize=14;" vertex="1" parent="1">
                    <mxGeometry x="298" y="165" width="230" height="40" as="geometry"/>
                </mxCell>
                <mxCell id="29" value="Contraseña" style="html=1;shadow=0;dashed=0;shape=mxgraph.bootstrap.rrect;rSize=5;strokeColor=#CED4DA;strokeWidth=1;fillColor=#E9ECEF;fontColor=#505050;whiteSpace=wrap;align=left;verticalAlign=middle;spacingLeft=10;fontSize=14;" vertex="1" parent="1">
                    <mxGeometry x="298" y="220" width="230" height="40" as="geometry"/>
                </mxCell>
                <mxCell id="30" value="Cancelar" style="rounded=1;fillColor=#d80073;strokeColor=#A50040;html=1;fontColor=#ffffff;align=center;verticalAlign=middle;fontStyle=0;fontSize=15;sketch=0;" vertex="1" parent="1">
                    <mxGeometry x="350" y="330" width="112" height="33" as="geometry"/>
                </mxCell>
                <mxCell id="31" value="Cotinuar" style="rounded=1;fillColor=#0050ef;strokeColor=#001DBC;html=1;fontColor=#ffffff;align=center;verticalAlign=middle;fontStyle=0;fontSize=15;sketch=0;" vertex="1" parent="1">
                    <mxGeometry x="350" y="280" width="112" height="33" as="geometry"/>
                </mxCell>
                <mxCell id="33" style="edgeStyle=none;html=1;fontSize=15;" edge="1" parent="1" source="20" target="23">
                    <mxGeometry relative="1" as="geometry"/>
                </mxCell>
            </root>
        </mxGraphModel>
    </diagram>
</mxfile>